<?xml version="1.0" standalone="no"?>
<!DOCTYPE svg PUBLIC "-//W3C//DTD SVG 20010904//EN"
 "http://www.w3.org/TR/2001/REC-SVG-20010904/DTD/svg10.dtd">
<svg version="1.0" xmlns="http://www.w3.org/2000/svg"
 width="347.000000pt" height="285.000000pt" viewBox="0 0 347.000000 285.000000"
 preserveAspectRatio="xMidYMid meet">

<g transform="translate(0.000000,285.000000) scale(0.100000,-0.100000)"
fill="#000000" stroke="none">
<path d="M258 2793 c-164 -215 -248 -470 -248 -749 0 -317 111 -604 323 -830
71 -76 206 -184 264 -212 19 -9 32 -19 31 -23 -2 -3 -79 -75 -173 -160 -93
-84 -216 -196 -273 -248 l-103 -94 53 -55 c191 -196 440 -328 742 -394 86 -19
131 -22 301 -22 219 0 301 12 495 75 410 132 780 458 970 853 114 238 170 504
156 753 l-6 123 341 0 342 0 -6 103 c-20 373 -313 724 -689 827 -163 44 -346
45 -503 3 -84 -22 -236 -94 -309 -147 -196 -141 -330 -348 -381 -589 -8 -38
-15 -87 -16 -110 -1 -93 32 -116 -629 429 -338 278 -620 510 -627 515 -8 7
-24 -8 -55 -48z"/>
</g>
</svg>
